<svg id="visual" xmlns="http://www.w3.org/2000/svg" xmlns:xlink="http://www.w3.org/1999/xlink" version="1.1" viewBox="0 350 960 100"><path d="M0 422L26.7 415.5C53.3 409 106.7 396 160 387.5C213.3 379 266.7 375 320 376.3C373.3 377.7 426.7 384.3 480 391.8C533.3 399.3 586.7 407.7 640 413.8C693.3 420 746.7 424 800 412.8C853.3 401.7 906.7 375.3 933.3 362.2L960 349L960 541L933.3 541C906.7 541 853.3 541 800 541C746.7 541 693.3 541 640 541C586.7 541 533.3 541 480 541C426.7 541 373.3 541 320 541C266.7 541 213.3 541 160 541C106.7 541 53.3 541 26.7 541L0 541Z" fill="#343347" stroke-linecap="round" stroke-linejoin="miter"></path></svg>